<svg width="31" height="31" viewBox="0 0 31 31" fill="none" xmlns="http://www.w3.org/2000/svg">
<path d="M15.5 16.7915C13.7871 16.7915 12.1444 16.1111 10.9333 14.8999C9.7221 13.6887 9.04167 12.046 9.04167 10.3332H11.625C11.625 11.3609 12.0333 12.3465 12.76 13.0732C13.4867 13.7999 14.4723 14.2082 15.5 14.2082C16.5277 14.2082 17.5133 13.7999 18.24 13.0732C18.9667 12.3465 19.375 11.3609 19.375 10.3332H21.9583C21.9583 12.046 21.2779 13.6887 20.0667 14.8999C18.8556 16.1111 17.2129 16.7915 15.5 16.7915ZM15.5 3.87484C16.5277 3.87484 17.5133 4.2831 18.24 5.0098C18.9667 5.7365 19.375 6.72212 19.375 7.74984H11.625C11.625 6.72212 12.0333 5.7365 12.76 5.0098C13.4867 4.2831 14.4723 3.87484 15.5 3.87484ZM24.5417 7.74984H21.9583C21.9583 6.90172 21.7913 6.0619 21.4667 5.27834C21.1422 4.49478 20.6664 3.78282 20.0667 3.18311C19.467 2.58339 18.7551 2.10768 17.9715 1.78312C17.1879 1.45855 16.3481 1.2915 15.5 1.2915C13.7871 1.2915 12.1444 1.97193 10.9333 3.18311C9.7221 4.39428 9.04167 6.03698 9.04167 7.74984H6.45833C5.02458 7.74984 3.875 8.89942 3.875 10.3332V25.8332C3.875 26.5183 4.14717 27.1754 4.63164 27.6599C5.11611 28.1443 5.77319 28.4165 6.45833 28.4165H24.5417C25.2268 28.4165 25.8839 28.1443 26.3684 27.6599C26.8528 27.1754 27.125 26.5183 27.125 25.8332V10.3332C27.125 9.64803 26.8528 8.99095 26.3684 8.50648C25.8839 8.02201 25.2268 7.74984 24.5417 7.74984Z" fill="white"></path>
</svg>