<svg width="73" height="52" viewBox="0 0 73 52" fill="none" xmlns="http://www.w3.org/2000/svg">
<path fill-rule="evenodd" clip-rule="evenodd" d="M65.2389 29.3542C56.8202 40.1913 37.5642 48.5263 22.2282 47.9741C6.88982 47.4195 1.27959 38.1873 9.69832 27.3503C18.1148 16.5132 37.3707 8.17816 52.7091 8.73044C68.0452 9.28498 73.6554 18.5194 65.2389 29.3542Z" fill="white" fill-opacity="0.15"></path>
<path fill-rule="evenodd" clip-rule="evenodd" d="M29.4907 37.5745C30.5208 35.7218 29.9888 33.754 28.3391 33.754C26.6578 33.754 25.2625 35.5438 25.2625 37.518C25.2625 39.6232 27.3972 40.6645 27.4446 42.0191C27.4694 42.7562 26.9985 43.2497 26.4978 43.2497C25.9477 43.2497 25.4881 42.5917 25.4948 41.6358L24.2574 42.2961C24.379 43.7546 25.1658 44.6604 26.3829 44.6604C27.7601 44.6604 28.8827 43.3642 28.7295 41.8271C28.5288 39.8122 26.5678 38.9151 26.5452 37.1434C26.5452 36.1066 27.3881 35.153 28.1388 35.153C28.9682 35.153 28.9008 36.5617 28.0801 38.036L29.4907 37.5745ZM53.241 29.9829C53.7459 29.9829 54.2056 30.6636 54.3836 31.173L54.893 29.5545C54.6046 29.0067 53.962 28.6822 53.2678 28.6822C52.4045 28.6822 51.487 29.3697 51.487 30.6926C51.487 31.8152 53.1774 33.1359 53.1774 33.873C53.1774 34.2585 52.8868 34.5356 52.5532 34.5356C52.0167 34.5356 51.5996 34.0556 51.2416 33.3749L50.6264 34.8514C50.9939 35.5298 51.6384 35.9718 52.4546 35.9718C53.5411 35.9718 54.5034 35.0724 54.5034 33.7653C54.5034 32.3634 52.8175 31.4459 52.8175 30.4814C52.8175 30.202 52.9749 29.9829 53.241 29.9829ZM50.6196 30.6342L49.506 29.62C49.2312 30.9298 48.4715 32.4533 47.4821 33.1588C47.7931 31.0988 48.1131 29.0049 48.4018 27.4293L47.0495 27.88L45.492 38.3338L46.7905 37.9009C46.7905 37.9009 46.9957 36.4424 47.2796 34.5198C47.4938 34.4275 47.6989 34.3191 47.8925 34.1998L48.4809 37.335L49.7884 36.8998L48.8641 33.4242C49.6528 32.6355 50.2206 31.6281 50.6196 30.6342ZM43.7381 31.8401C41.9257 31.8401 40.817 34.7385 40.817 36.9992C40.817 38.3876 41.3715 39.3793 42.3632 39.3793C43.3258 39.3793 44.101 38.5969 44.491 37.8128L43.4971 36.8392C43.2422 37.5989 42.8548 37.9664 42.5909 37.9664C42.2867 37.9664 42.1177 37.5492 42.1177 36.9273C42.1177 35.3789 42.8052 33.3301 43.5129 33.3301C43.9142 33.3301 43.9816 34.0853 43.7945 35.2257L45.0975 34.7927C45.2914 32.8994 44.7184 31.8401 43.7381 31.8401ZM38.5879 37.3602C37.7901 37.8493 36.9065 38.6474 36.9065 39.2851C36.9065 39.5554 37.0665 39.7068 37.2695 39.7068C37.7608 39.7068 38.3063 38.9068 38.5879 37.3602ZM39.4756 39.5938C39.4756 39.851 39.4959 40.0919 39.5479 40.3197L38.3669 40.712C38.3104 40.5294 38.2814 40.3197 38.2769 40.09C38.0672 40.6694 37.4792 41.1359 37.0078 41.1359C36.3113 41.1359 35.6578 40.552 35.6578 39.5445C35.6578 38.5281 36.2575 37.6784 37.044 37.047C37.8507 36.398 38.9147 35.8322 38.9147 35.3409C38.9147 35.165 38.7637 35.0231 38.493 35.0231C37.9633 35.0231 37.1023 35.5867 36.7733 36.1006L36.39 34.9309C36.8316 34.2796 37.7897 33.6302 38.6417 33.6302C39.4846 33.6302 39.9895 34.2589 40.0414 35.0615C40.1382 36.5535 39.4756 38.1399 39.4756 39.5938ZM35.1232 36.6931C35.1232 37.7503 34.6161 39.9635 34.1763 42.1117L32.7631 42.5849C33.2973 39.968 33.7637 37.9351 33.7637 37.1505C33.7637 36.8147 33.6421 36.6547 33.4821 36.6547C32.8037 36.6547 31.7127 39.6729 31.1762 43.1146L29.9026 43.5385L30.9981 36.0915L32.3459 35.6454L32.1204 36.8693C32.5575 36.0174 33.3217 35.0773 34.0499 35.0773C34.8051 35.0773 35.1232 35.8141 35.1232 36.6931Z" fill="white"></path>
<path fill-rule="evenodd" clip-rule="evenodd" d="M45.9626 15.6861L47.4414 15.1926C47.4414 15.1926 46.3527 22.0921 45.8704 25.0516C45.3904 28.0087 44.491 30.1614 42.5119 30.1614C41.8064 30.1614 41.1438 29.7691 40.7289 29.3004L41.2721 27.5558C41.457 27.9639 41.937 28.4349 42.4328 28.4349C43.5822 28.4349 44.2023 26.9249 44.6777 24.0035C44.1458 25.2884 43.2848 26.2303 42.3379 26.2303C41.3373 26.2303 40.715 25.5406 40.715 24.2489C40.715 22.8085 41.4227 19.2453 41.9005 17.0429L43.5841 16.4816C42.917 19.54 42.2182 22.4411 42.2182 23.7866C42.2182 24.2173 42.3624 24.465 42.6734 24.465C43.7215 24.465 45.0806 20.5949 45.9619 15.6857L45.9626 15.6861ZM49.7473 22.1527C49.3912 22.1527 49.1792 21.8214 49.1792 21.4472C49.1792 20.4601 50.7593 19.5562 51.8345 18.5665C51.289 20.7237 50.5474 22.1527 49.7473 22.1527ZM51.5145 13.8557C50.3964 13.8557 49.2041 14.6557 48.8118 15.5867L49.2692 16.9842C49.7176 16.1593 50.4841 15.438 51.2709 15.438C51.6316 15.438 51.8865 15.5935 52.0216 15.9112C52.531 17.4484 47.6737 18.5891 47.6737 21.9317C47.6737 23.2212 48.4782 23.8724 49.398 23.8724C50.1735 23.8724 50.7977 23.3721 51.298 22.565C51.3161 22.7769 51.3432 22.9911 51.3816 23.2095L52.7475 22.7543C52.4726 20.6197 53.6062 18.2958 53.6062 16.3216C53.6062 14.8541 52.851 13.8557 51.5145 13.8557ZM60.67 13.0354C60.67 13.9009 60.3681 14.9761 59.9848 15.6884L58.2109 16.2813C58.7451 15.24 59.3448 13.0534 58.6751 13.0534C57.697 13.0534 56.2137 17.3516 55.5443 21.8192L54.0252 22.3263L55.5082 12.4944L57.1872 11.9331L56.6711 13.8602C57.4579 12.1699 58.4925 11.2366 59.3625 11.2366C60.2303 11.2343 60.67 12.1044 60.67 13.0354ZM63.7624 17.3877C63.2869 17.3877 63.0185 16.6235 63.0185 15.5329C63.0185 13.2993 64.1253 11.1195 64.8688 11.1195C65.2815 11.1195 65.5969 11.5095 65.5969 12.3502C65.5969 15.4245 64.4114 17.3855 63.7624 17.3877ZM66.5799 16.6284C67.0061 13.9257 68.3945 5 68.3945 5L66.8867 5.50259L66.3457 9.95661C66.08 9.51952 65.6809 9.29628 65.1557 9.29628C63.6972 9.29628 61.5449 11.6067 61.5449 15.8103C61.5449 17.7465 62.3092 19.1485 63.4676 19.1485C64.0696 19.1485 64.6373 18.7114 65.1263 18.0014C65.1557 18.2156 65.2167 18.3959 65.3135 18.5514L66.6567 18.103C66.4696 17.7266 66.4786 17.2778 66.5799 16.6284ZM23.504 25.4502C23.504 26.9557 22.9721 29.4465 22.2349 32.9446L20.6413 33.4766C21.3355 30.1271 21.9597 27.287 21.9597 26.3903C21.9575 25.7458 21.802 25.466 21.5091 25.466C20.621 25.466 19.2506 29.8184 18.3783 34.2318L16.8593 34.7389L18.89 21.2669L20.5758 20.7056L19.5029 26.2751C20.2893 24.5825 21.3265 23.6515 22.1965 23.6492C23.0621 23.6492 23.5018 24.5192 23.504 25.4502ZM39.1262 14.7799L40.6363 14.2751L38.5898 27.4809L37.1494 27.9632L39.1262 14.7799ZM9.02443 29.6494C9.73672 28.0061 10.4422 25.3625 9.11893 25.3625C8.20372 25.3648 6.95947 26.7893 6.95947 28.3174C6.95947 30.4181 9.64185 32.0343 9.77249 34.4279C9.89635 36.6977 8.46499 38.2099 6.58299 38.2122C5.0594 38.2145 4.03162 36.8441 4 35.2324L5.38618 34.493C5.43362 35.7034 5.90685 36.5147 6.88267 36.5147C7.56333 36.5124 8.20786 35.8273 8.20786 34.7227C8.20786 32.9781 5.40613 31.0194 5.40613 28.5155C5.40613 25.698 7.37171 23.6876 9.39112 23.6876C12.1928 23.6876 11.5303 27.6522 10.6715 29.0971L9.02368 29.6494H9.02443ZM16.5212 29.7416L15.1621 30.1945C15.3718 28.468 15.1418 27.7625 14.6234 27.7625C13.8749 27.7648 12.7256 30.0481 12.6826 32.5836C12.6646 33.704 12.9552 34.362 13.3678 34.362C13.9133 34.362 14.3595 33.6656 14.7201 32.4868L15.7795 33.6498C15.1821 35.0879 14.2266 35.9647 12.9868 35.9647C12.0581 35.9669 11.1632 34.9459 11.1971 33.0414C11.2626 29.061 13.032 26.036 14.9479 26.0383C16.2125 26.0383 16.8186 27.659 16.5212 29.7416ZM35.1096 24.3728C34.819 26.1106 34.0344 27.5419 33.3854 27.5419C32.7363 27.5419 32.4656 26.1128 32.7589 24.3773C33.0496 22.6395 33.8341 21.2104 34.4832 21.2082C35.1322 21.2082 35.4006 22.6372 35.1096 24.3728ZM34.7783 19.4501C33.3199 19.4501 31.7466 21.6701 31.2937 24.3796C30.8385 27.0868 31.6318 29.3023 33.0902 29.3023C34.5487 29.3 36.1197 27.08 36.5749 24.3728C37.0278 21.6633 36.2368 19.4478 34.7783 19.4501ZM28.4381 26.5932C28.1475 28.3287 27.3629 29.7601 26.7139 29.7601C26.0648 29.7623 25.7941 28.3332 26.0874 26.5955C26.378 24.8577 27.1626 23.4286 27.8117 23.4286C28.4607 23.4263 28.7291 24.8554 28.4381 26.5932ZM28.1064 21.6682C26.648 21.6705 25.0747 23.8883 24.6218 26.5977C24.1666 29.3072 24.9599 31.5227 26.4183 31.5204C27.8768 31.5182 29.4478 29.3004 29.903 26.5909C30.3559 23.8819 29.5649 21.666 28.1064 21.6682Z" fill="white"></path>
<path fill-rule="evenodd" clip-rule="evenodd" d="M55.8421 25.198H55.4927V24.9589H56.4437V25.198H56.0943V26.5525H55.8421V25.198Z" fill="white"></path>
<path fill-rule="evenodd" clip-rule="evenodd" d="M56.7279 24.9589H56.996L57.3499 26.1806L57.706 24.9589H57.9722V26.5525H57.7331V25.5293L57.4267 26.5525H57.2757L56.9689 25.5293V26.5525H56.7279V24.9589Z" fill="white"></path>
</svg>