<svg width="34" height="34" viewBox="0 0 34 34" fill="none" xmlns="http://www.w3.org/2000/svg">
<g clip-path="url(#clip0_1371_5012)">
<path d="M15.4609 0.200195C16.1757 -0.0697289 16.9698 -0.0690747 17.6846 0.216797L27.2168 3.79102C27.8224 4.01729 28.3448 4.42327 28.7139 4.9541C29.0827 5.48483 29.2811 6.11539 29.2822 6.76172V14.2285C29.2822 21.9176 24.3097 29.1141 17.4785 31.3066C16.8907 31.4973 16.2548 31.4973 15.667 31.3066C8.8358 29.1141 3.86328 21.9017 3.86328 14.2285V6.76172C3.86333 5.42728 4.68958 4.25198 5.92871 3.77539L15.4609 0.200195ZM16.5791 8C11.901 8 8.95341 9.44109 8.95312 10.8604V12.7666C8.95312 13.6416 14.6729 18.4863 14.6729 18.4863V24.2051C14.6719 24.8571 15.6259 25.1592 16.5791 25.1592C17.5322 25.1591 18.4863 24.857 18.4854 24.2051V18.4863C18.5002 18.4738 24.2041 13.6405 24.2041 12.7666V10.8604C24.2038 9.44112 21.2571 8.00006 16.5791 8ZM16.5791 9.39453C20.0003 9.3927 22.4307 10.6656 22.4297 11.1367C22.4297 11.6124 20.0019 12.8818 16.5791 12.8828C13.1561 12.8819 10.7275 11.6124 10.7275 11.1377C10.7265 10.6657 13.1577 9.39263 16.5791 9.39453Z" fill="white"></path>
</g>
<defs>
<clipPath id="clip0_1371_5012">
<rect width="31.45" height="31.45" fill="white" transform="translate(0.851562)"></rect>
</clipPath>
</defs>
</svg>