<svg width="668" height="152" viewBox="0 0 668 152" fill="none" xmlns="http://www.w3.org/2000/svg">
<g clip-path="url(#clip0_1525_2050)">
<path d="M198.487 11.6275V87H182.551V11.6275H198.487ZM222.836 54.3189V87H207.158V30.4706H222.1V40.4442H222.762C224.014 37.1565 226.111 34.5557 229.056 32.642C232 30.7037 235.57 29.7345 239.765 29.7345C243.691 29.7345 247.114 30.5933 250.033 32.3107C252.953 34.0282 255.223 36.4817 256.842 39.6713C258.461 42.8364 259.271 46.6148 259.271 51.0067V87H243.593V53.8037C243.617 50.3442 242.734 47.6453 240.943 45.707C239.152 43.7442 236.686 42.7628 233.546 42.7628C231.436 42.7628 229.571 43.2167 227.951 44.1245C226.357 45.0323 225.105 46.3572 224.198 48.0992C223.314 49.8167 222.86 51.8899 222.836 54.3189ZM297.55 30.4706V42.2475H263.507V30.4706H297.55ZM271.236 16.9271H286.914V69.629C286.914 71.0766 287.135 72.2052 287.576 73.0149C288.018 73.8 288.631 74.352 289.417 74.671C290.226 74.99 291.159 75.1494 292.214 75.1494C292.95 75.1494 293.686 75.0881 294.422 74.9654C295.158 74.8182 295.722 74.7078 296.115 74.6342L298.58 86.3007C297.795 86.5461 296.691 86.8283 295.268 87.1472C293.845 87.4907 292.115 87.6993 290.079 87.7729C286.301 87.9201 282.988 87.4171 280.142 86.2639C277.321 85.1108 275.125 83.3197 273.554 80.8907C271.984 78.4617 271.211 75.3948 271.236 71.69V16.9271ZM328.772 88.1041C322.957 88.1041 317.952 86.9264 313.757 84.571C309.586 82.1911 306.371 78.8297 304.114 74.487C301.857 70.1197 300.728 64.955 300.728 58.9929C300.728 53.178 301.857 48.0747 304.114 43.6829C306.371 39.291 309.549 35.8684 313.646 33.4148C317.768 30.9613 322.602 29.7345 328.147 29.7345C331.876 29.7345 335.348 30.3356 338.562 31.5379C341.8 32.7156 344.622 34.4944 347.026 36.8743C349.455 39.2542 351.345 42.2475 352.694 45.8542C354.044 49.4364 354.718 53.6319 354.718 58.4409V62.7468H306.985V53.0308H339.96C339.96 50.7736 339.47 48.7739 338.488 47.0319C337.507 45.2899 336.145 43.9282 334.403 42.9468C332.686 41.9409 330.686 41.4379 328.404 41.4379C326.024 41.4379 323.914 41.9899 322.074 43.094C320.258 44.1736 318.835 45.6334 317.805 47.4736C316.774 49.2892 316.247 51.3134 316.222 53.5461V62.7836C316.222 65.5807 316.738 67.9974 317.768 70.0338C318.823 72.0702 320.308 73.6405 322.221 74.7446C324.135 75.8487 326.405 76.4007 329.03 76.4007C330.772 76.4007 332.367 76.1554 333.814 75.6647C335.262 75.174 336.501 74.4379 337.531 73.4565C338.562 72.4751 339.347 71.2728 339.887 69.8498L354.387 70.8067C353.651 74.2907 352.142 77.3331 349.86 79.9338C347.603 82.51 344.683 84.5219 341.101 85.9695C337.544 87.3926 333.434 88.1041 328.772 88.1041ZM386.272 109.376C381.193 109.376 376.838 108.677 373.207 107.278C369.6 105.904 366.729 104.028 364.595 101.648C362.46 99.2677 361.074 96.5933 360.436 93.6245L374.936 91.674C375.378 92.8026 376.077 93.8576 377.034 94.839C377.991 95.8205 379.255 96.6056 380.825 97.1944C382.42 97.8078 384.358 98.1145 386.64 98.1145C390.05 98.1145 392.859 97.2803 395.068 95.6119C397.3 93.968 398.417 91.2078 398.417 87.3312V76.9896H397.754C397.067 78.5598 396.037 80.0442 394.663 81.4427C393.289 82.8413 391.522 83.9822 389.363 84.8654C387.204 85.7487 384.628 86.1903 381.635 86.1903C377.39 86.1903 373.526 85.2089 370.042 83.2461C366.582 81.2587 363.822 78.2286 361.761 74.1558C359.725 70.0584 358.706 64.8814 358.706 58.6249C358.706 52.2212 359.749 46.8725 361.835 42.5788C363.92 38.2851 366.693 35.071 370.152 32.9364C373.636 30.8018 377.451 29.7345 381.598 29.7345C384.763 29.7345 387.413 30.2743 389.547 31.3539C391.682 32.4089 393.399 33.7338 394.7 35.3286C396.025 36.8988 397.043 38.4446 397.754 39.9658H398.343V30.4706H413.911V87.552C413.911 92.361 412.733 96.3848 410.378 99.6234C408.022 102.862 404.759 105.291 400.588 106.91C396.442 108.554 391.67 109.376 386.272 109.376ZM386.603 74.4134C389.13 74.4134 391.265 73.7877 393.007 72.5364C394.773 71.2606 396.123 69.445 397.055 67.0896C398.012 64.7096 398.49 61.8635 398.49 58.5513C398.49 55.239 398.024 52.3684 397.092 49.9394C396.159 47.4858 394.81 45.5844 393.044 44.2349C391.277 42.8855 389.13 42.2107 386.603 42.2107C384.027 42.2107 381.855 42.91 380.089 44.3085C378.322 45.6825 376.985 47.5963 376.077 50.0498C375.17 52.5033 374.716 55.3371 374.716 58.5513C374.716 61.8145 375.17 64.636 376.077 67.016C377.01 69.3714 378.347 71.1992 380.089 72.4996C381.855 73.7755 384.027 74.4134 386.603 74.4134ZM422.242 87V30.4706H437.441V40.3338H438.03C439.06 36.8252 440.79 34.1754 443.219 32.3843C445.648 30.5687 448.445 29.6609 451.61 29.6609C452.395 29.6609 453.242 29.71 454.15 29.8081C455.058 29.9063 455.855 30.0412 456.542 30.213V44.1245C455.806 43.9037 454.788 43.7074 453.487 43.5357C452.187 43.3639 450.997 43.278 449.917 43.278C447.611 43.278 445.55 43.781 443.734 44.787C441.943 45.7684 440.52 47.1423 439.465 48.9089C438.435 50.6754 437.92 52.7119 437.92 55.0182V87H422.242ZM475.003 88.0673C471.396 88.0673 468.182 87.4416 465.36 86.1903C462.539 84.9145 460.306 83.0375 458.662 80.5595C457.043 78.0569 456.233 74.9409 456.233 71.2115C456.233 68.071 456.81 65.4334 457.963 63.2989C459.116 61.1643 460.686 59.4468 462.674 58.1464C464.661 56.8461 466.918 55.8647 469.445 55.2022C471.997 54.5398 474.671 54.0736 477.468 53.8037C480.756 53.4602 483.406 53.1412 485.418 52.8468C487.43 52.5279 488.89 52.0617 489.797 51.4483C490.705 50.8349 491.159 49.9271 491.159 48.7249V48.5041C491.159 46.1732 490.423 44.3699 488.951 43.094C487.503 41.8182 485.442 41.1803 482.768 41.1803C479.947 41.1803 477.702 41.8059 476.033 43.0572C474.365 44.284 473.261 45.8297 472.721 47.6944L458.22 46.5167C458.957 43.0817 460.404 40.113 462.563 37.6104C464.722 35.0832 467.507 33.1449 470.918 31.7955C474.352 30.4215 478.327 29.7345 482.842 29.7345C485.982 29.7345 488.988 30.1026 491.858 30.8386C494.754 31.5747 497.318 32.7156 499.55 34.2613C501.808 35.807 503.586 37.7944 504.887 40.2234C506.187 42.6278 506.837 45.5107 506.837 48.8721V87H491.969V79.161H491.527C490.619 80.9275 489.405 82.4855 487.884 83.8349C486.363 85.1598 484.535 86.2026 482.4 86.9632C480.265 87.6993 477.8 88.0673 475.003 88.0673ZM479.493 77.2472C481.799 77.2472 483.835 76.7933 485.602 75.8855C487.368 74.9532 488.755 73.7018 489.761 72.1316C490.767 70.5613 491.27 68.7825 491.27 66.7952V60.7963C490.779 61.1152 490.104 61.4096 489.245 61.6795C488.411 61.9249 487.467 62.158 486.412 62.3788C485.357 62.5751 484.302 62.7591 483.247 62.9308C482.192 63.078 481.235 63.213 480.376 63.3357C478.536 63.6056 476.929 64.0349 475.555 64.6238C474.181 65.2126 473.113 66.01 472.353 67.016C471.592 67.9974 471.212 69.2241 471.212 70.6963C471.212 72.8308 471.985 74.4624 473.531 75.5911C475.101 76.6952 477.088 77.2472 479.493 77.2472ZM544.923 30.4706V42.2475H510.88V30.4706H544.923ZM518.609 16.9271H534.287V69.629C534.287 71.0766 534.508 72.2052 534.95 73.0149C535.391 73.8 536.005 74.352 536.79 74.671C537.599 74.99 538.532 75.1494 539.587 75.1494C540.323 75.1494 541.059 75.0881 541.795 74.9654C542.531 74.8182 543.095 74.7078 543.488 74.6342L545.954 86.3007C545.169 86.5461 544.064 86.8283 542.641 87.1472C541.218 87.4907 539.489 87.6993 537.452 87.7729C533.674 87.9201 530.362 87.4171 527.515 86.2639C524.694 85.1108 522.498 83.3197 520.928 80.8907C519.357 78.4617 518.585 75.3948 518.609 71.69V16.9271ZM576.145 88.1041C570.331 88.1041 565.325 86.9264 561.13 84.571C556.959 82.1911 553.745 78.8297 551.487 74.487C549.23 70.1197 548.102 64.955 548.102 58.9929C548.102 53.178 549.23 48.0747 551.487 43.6829C553.745 39.291 556.922 35.8684 561.019 33.4148C565.141 30.9613 569.975 29.7345 575.52 29.7345C579.249 29.7345 582.721 30.3356 585.935 31.5379C589.174 32.7156 591.995 34.4944 594.4 36.8743C596.829 39.2542 598.718 42.2475 600.067 45.8542C601.417 49.4364 602.092 53.6319 602.092 58.4409V62.7468H554.358V53.0308H587.334C587.334 50.7736 586.843 48.7739 585.861 47.0319C584.88 45.2899 583.518 43.9282 581.776 42.9468C580.059 41.9409 578.059 41.4379 575.777 41.4379C573.397 41.4379 571.287 41.9899 569.447 43.094C567.632 44.1736 566.209 45.6334 565.178 47.4736C564.148 49.2892 563.62 51.3134 563.596 53.5461V62.7836C563.596 65.5807 564.111 67.9974 565.141 70.0338C566.196 72.0702 567.681 73.6405 569.594 74.7446C571.508 75.8487 573.778 76.4007 576.403 76.4007C578.145 76.4007 579.74 76.1554 581.187 75.6647C582.635 75.174 583.874 74.4379 584.905 73.4565C585.935 72.4751 586.72 71.2728 587.26 69.8498L601.76 70.8067C601.024 74.2907 599.515 77.3331 597.234 79.9338C594.976 82.51 592.057 84.5219 588.474 85.9695C584.917 87.3926 580.807 88.1041 576.145 88.1041ZM629.008 87.9201C624.714 87.9201 620.825 86.816 617.341 84.6078C613.882 82.3751 611.134 79.0996 609.097 74.7814C607.085 70.4386 606.08 65.1145 606.08 58.8089C606.08 52.3316 607.122 46.9461 609.208 42.6524C611.293 38.3342 614.066 35.1078 617.525 32.9732C621.009 30.8141 624.825 29.7345 628.971 29.7345C632.136 29.7345 634.774 30.2743 636.884 31.3539C639.018 32.4089 640.736 33.7338 642.036 35.3286C643.361 36.8988 644.367 38.4446 645.054 39.9658H645.532V11.6275H661.174V87H645.716V77.9465H645.054C644.318 79.5167 643.275 81.0747 641.926 82.6204C640.601 84.1416 638.871 85.4052 636.736 86.4112C634.626 87.4171 632.05 87.9201 629.008 87.9201ZM633.976 75.4439C636.503 75.4439 638.638 74.7569 640.38 73.3829C642.146 71.9844 643.496 70.0338 644.428 67.5312C645.385 65.0286 645.864 62.0966 645.864 58.7353C645.864 55.374 645.397 52.4542 644.465 49.9762C643.533 47.4981 642.183 45.5844 640.417 44.2349C638.65 42.8855 636.503 42.2107 633.976 42.2107C631.4 42.2107 629.229 42.91 627.462 44.3085C625.696 45.707 624.358 47.6453 623.451 50.1234C622.543 52.6015 622.089 55.4721 622.089 58.7353C622.089 62.023 622.543 64.9305 623.451 67.4576C624.383 69.9602 625.72 71.923 627.462 73.3461C629.229 74.7446 631.4 75.4439 633.976 75.4439Z" fill="white"></path>
<path d="M179.635 108.983H183.973L194.174 133.899H194.526L204.727 108.983H209.066V139H205.665V116.194H205.372L195.992 139H192.709L183.328 116.194H183.035V139H179.635V108.983ZM220.859 139.528C219.432 139.528 218.137 139.259 216.975 138.722C215.812 138.174 214.888 137.388 214.204 136.362C213.521 135.326 213.179 134.075 213.179 132.61C213.179 131.32 213.433 130.274 213.941 129.473C214.449 128.662 215.128 128.027 215.978 127.568C216.828 127.108 217.766 126.766 218.792 126.542C219.828 126.307 220.868 126.122 221.914 125.985C223.282 125.809 224.391 125.677 225.241 125.589C226.101 125.491 226.726 125.33 227.117 125.105C227.518 124.881 227.718 124.49 227.718 123.933V123.816C227.718 122.369 227.322 121.246 226.531 120.445C225.749 119.643 224.562 119.243 222.969 119.243C221.318 119.243 220.023 119.604 219.085 120.327C218.147 121.05 217.488 121.822 217.107 122.643L213.823 121.47C214.41 120.103 215.191 119.037 216.169 118.275C217.155 117.503 218.23 116.966 219.393 116.663C220.566 116.35 221.719 116.194 222.852 116.194C223.575 116.194 224.406 116.282 225.344 116.458C226.291 116.624 227.205 116.971 228.084 117.499C228.974 118.026 229.711 118.823 230.298 119.888C230.884 120.953 231.177 122.379 231.177 124.167V139H227.718V135.951H227.542C227.308 136.44 226.917 136.963 226.37 137.52C225.822 138.077 225.094 138.551 224.186 138.941C223.277 139.332 222.168 139.528 220.859 139.528ZM221.386 136.42C222.754 136.42 223.907 136.152 224.845 135.614C225.793 135.077 226.506 134.383 226.985 133.533C227.474 132.683 227.718 131.789 227.718 130.851V127.685C227.571 127.861 227.249 128.022 226.751 128.169C226.262 128.305 225.695 128.428 225.051 128.535C224.415 128.633 223.795 128.721 223.189 128.799C222.593 128.867 222.109 128.926 221.738 128.975C220.839 129.092 219.999 129.283 219.217 129.546C218.445 129.8 217.82 130.186 217.341 130.704C216.872 131.212 216.638 131.906 216.638 132.786C216.638 133.987 217.082 134.896 217.971 135.512C218.87 136.118 220.009 136.42 221.386 136.42ZM235.84 139V116.487H239.181V119.888H239.416C239.826 118.774 240.569 117.87 241.644 117.176C242.718 116.482 243.93 116.135 245.278 116.135C245.533 116.135 245.85 116.14 246.231 116.15C246.612 116.16 246.9 116.175 247.096 116.194V119.712C246.979 119.682 246.71 119.638 246.29 119.58C245.879 119.511 245.445 119.477 244.985 119.477C243.891 119.477 242.914 119.707 242.054 120.166C241.204 120.616 240.53 121.241 240.031 122.042C239.543 122.834 239.299 123.737 239.299 124.754V139H235.84ZM252.77 130.792L252.711 126.512H253.415L263.264 116.487H267.544L257.049 127.099H256.756L252.77 130.792ZM249.545 139V108.983H253.004V139H249.545ZM263.85 139L255.056 127.861L257.518 125.457L268.247 139H263.85ZM278.857 139.469C276.688 139.469 274.816 138.99 273.243 138.033C271.68 137.065 270.473 135.717 269.623 133.987C268.783 132.248 268.362 130.225 268.362 127.919C268.362 125.613 268.783 123.581 269.623 121.822C270.473 120.054 271.655 118.676 273.17 117.689C274.694 116.692 276.473 116.194 278.505 116.194C279.677 116.194 280.835 116.389 281.979 116.78C283.122 117.171 284.162 117.806 285.1 118.686C286.039 119.555 286.786 120.708 287.343 122.145C287.9 123.581 288.178 125.35 288.178 127.45V128.916H270.825V125.926H284.661C284.661 124.656 284.407 123.522 283.899 122.526C283.4 121.529 282.687 120.743 281.759 120.166C280.84 119.59 279.756 119.301 278.505 119.301C277.127 119.301 275.935 119.643 274.929 120.327C273.932 121.001 273.165 121.881 272.628 122.965C272.09 124.05 271.821 125.213 271.821 126.454V128.447C271.821 130.147 272.115 131.589 272.701 132.771C273.297 133.943 274.123 134.837 275.178 135.453C276.233 136.059 277.459 136.362 278.857 136.362C279.765 136.362 280.586 136.235 281.319 135.981C282.062 135.717 282.702 135.326 283.239 134.808C283.776 134.281 284.192 133.626 284.485 132.844L287.827 133.782C287.475 134.916 286.884 135.912 286.053 136.772C285.223 137.622 284.197 138.287 282.975 138.765C281.754 139.235 280.381 139.469 278.857 139.469ZM301.58 116.487V119.419H289.913V116.487H301.58ZM293.314 111.093H296.773V132.551C296.773 133.528 296.914 134.261 297.198 134.75C297.491 135.228 297.862 135.551 298.312 135.717C298.771 135.873 299.254 135.951 299.763 135.951C300.144 135.951 300.456 135.932 300.701 135.893C300.945 135.844 301.14 135.805 301.287 135.776L301.99 138.883C301.756 138.971 301.429 139.059 301.008 139.147C300.588 139.244 300.056 139.293 299.411 139.293C298.434 139.293 297.476 139.083 296.538 138.663C295.61 138.243 294.838 137.603 294.222 136.743C293.616 135.883 293.314 134.798 293.314 133.489V111.093ZM305.132 139V116.487H308.591V139H305.132ZM306.891 112.735C306.217 112.735 305.635 112.505 305.147 112.046C304.668 111.587 304.429 111.035 304.429 110.39C304.429 109.745 304.668 109.193 305.147 108.734C305.635 108.275 306.217 108.045 306.891 108.045C307.565 108.045 308.142 108.275 308.621 108.734C309.109 109.193 309.353 109.745 309.353 110.39C309.353 111.035 309.109 111.587 308.621 112.046C308.142 112.505 307.565 112.735 306.891 112.735ZM316.735 125.457V139H313.276V116.487H316.617V120.005H316.911C317.438 118.862 318.239 117.943 319.314 117.249C320.389 116.546 321.777 116.194 323.477 116.194C325.001 116.194 326.335 116.507 327.478 117.132C328.621 117.748 329.51 118.686 330.146 119.946C330.781 121.197 331.098 122.78 331.098 124.695V139H327.639V124.929C327.639 123.161 327.18 121.783 326.262 120.796C325.343 119.8 324.083 119.301 322.48 119.301C321.376 119.301 320.389 119.541 319.519 120.019C318.66 120.498 317.98 121.197 317.482 122.115C316.984 123.034 316.735 124.148 316.735 125.457ZM344.855 147.911C343.184 147.911 341.748 147.696 340.546 147.266C339.344 146.846 338.343 146.289 337.542 145.596C336.75 144.912 336.12 144.179 335.651 143.397L338.406 141.462C338.719 141.873 339.115 142.342 339.594 142.869C340.072 143.407 340.727 143.871 341.558 144.262C342.398 144.662 343.497 144.863 344.855 144.863C346.673 144.863 348.173 144.423 349.355 143.544C350.537 142.664 351.128 141.286 351.128 139.41V134.837H350.835C350.581 135.248 350.22 135.756 349.751 136.362C349.291 136.958 348.627 137.49 347.757 137.959C346.897 138.419 345.735 138.648 344.269 138.648C342.452 138.648 340.82 138.218 339.374 137.358C337.937 136.499 336.799 135.248 335.959 133.606C335.128 131.965 334.713 129.971 334.713 127.626C334.713 125.32 335.118 123.312 335.929 121.602C336.74 119.883 337.869 118.554 339.315 117.616C340.761 116.668 342.432 116.194 344.328 116.194C345.793 116.194 346.956 116.438 347.816 116.927C348.686 117.406 349.35 117.953 349.809 118.568C350.278 119.174 350.64 119.673 350.894 120.063H351.246V116.487H354.587V139.645C354.587 141.58 354.148 143.153 353.268 144.364C352.399 145.586 351.226 146.48 349.751 147.047C348.285 147.623 346.653 147.911 344.855 147.911ZM344.738 135.541C346.126 135.541 347.298 135.223 348.256 134.588C349.213 133.953 349.941 133.04 350.44 131.847C350.938 130.655 351.187 129.229 351.187 127.568C351.187 125.946 350.943 124.514 350.454 123.273C349.966 122.032 349.243 121.06 348.285 120.357C347.327 119.653 346.145 119.301 344.738 119.301C343.272 119.301 342.051 119.673 341.074 120.415C340.106 121.158 339.379 122.154 338.89 123.405C338.411 124.656 338.172 126.043 338.172 127.568C338.172 129.131 338.416 130.514 338.905 131.716C339.403 132.908 340.136 133.846 341.103 134.53C342.08 135.204 343.292 135.541 344.738 135.541Z" fill="white"></path>
<rect width="155" height="155" rx="15" fill="#8390FA"></rect>
<path d="M33.4619 114.372H13L14.9922 102.372H35.4541L33.4619 114.372ZM63.1807 114.372H43.1602L45.1523 102.372H65.1943L63.1807 114.372ZM130.015 114.372H109.994L111.98 102.372H132.007L130.015 114.372ZM92.7705 113.783H80.6992L78.1758 102.372H99.1016L92.7705 113.783ZM36.1182 98.3721H15.6562L16.9844 90.3721H37.4463L36.1182 98.3721ZM65.8652 98.3721H45.8164L47.1445 90.3721H67.207L65.8652 98.3721ZM101.32 98.3721H77.291L75.5225 90.3721H105.759L101.32 98.3721ZM132.671 98.3721H112.643L113.967 90.3721H133.999L132.671 98.3721ZM38.2764 85.3721H17.8145L19.1426 77.3721H39.6045L38.2764 85.3721ZM68.0469 85.3721H47.9746L49.3027 77.3721H69.3887L68.0469 85.3721ZM91.5928 81.6914H92.4756L94.9629 77.3721H112.971L108.532 85.3721H74.417L72.6484 77.3721H90.5352L91.5928 81.6914ZM134.829 85.3721H114.795L116.119 77.3721H136.157L134.829 85.3721ZM40.2686 73.3721H19.8066L25.5127 39H45.9756L40.2686 73.3721ZM89.5557 73.3721H71.7646L71.1299 70.5029H70.541L70.0596 73.3721H49.9668L55.6729 39H81.1406L89.5557 73.3721ZM136.821 73.3721H116.781L117.207 70.7969H116.618L115.189 73.3721H97.2666L117.061 39H142.528L136.821 73.3721Z" fill="white"></path>
</g>
<defs>
<clipPath id="clip0_1525_2050">
<rect width="668" height="152" fill="white"></rect>
</clipPath>
</defs>
</svg>